<?xml version="1.0" standalone="no"?><!DOCTYPE svg PUBLIC "-//W3C//DTD SVG 1.1//EN" "http://www.w3.org/Graphics/SVG/1.1/DTD/svg11.dtd"><svg t="1524656155725" class="icon" style="" viewBox="0 0 1025 1024" version="1.1" xmlns="http://www.w3.org/2000/svg" p-id="10926" xmlns:xlink="http://www.w3.org/1999/xlink" width="200.1953125" height="200"><defs><style type="text/css"></style></defs><path d="M773.928 355.059L484.22 699.125c-12.893 14.506-34.877 16.379-50.04 4.225L259.05 537.537c-1.893-1.805-3.445-3.803-4.805-5.893-3.617-5.059-5.811-11.211-5.811-17.924 0-17.042 13.808-30.864 30.87-30.864 5.359 0 10.329 1.483 14.718 3.883 0.424 0.239 0.909 0.418 1.306 0.663l0.636 0.396c0.314 0.205 0.643 0.418 0.965 0.637l154.369 100.482c2.037 1.34 4.71 1.066 6.438-0.629l275.599-270.828c10.76-10.568 28-10.575 38.771-0.027C782.473 327.564 783.266 343.971 773.928 355.059M513.943 60.128c-247.42 0-448 200.58-448 448s200.58 448 448 448c247.434 0 448-200.58 448-448S761.377 60.128 513.943 60.128z" fill="#52c41a" p-id="10927"></path></svg>